solid OpenSCAD_Model
  facet normal -1 -1.24657e-16 -9.34925e-17
    outer loop
      vertex -9.5 35.75 -9.5
      vertex -9.5 35.75 9.5
      vertex -9.5 64.25 -9.5
    endloop
  endfacet
  facet normal -1 -1.24657e-16 -9.34925e-17
    outer loop
      vertex -9.5 64.25 -9.5
      vertex -9.5 35.75 9.5
      vertex -9.5 64.25 9.5
    endloop
  endfacet
  facet normal 0 -1 0
    outer loop
      vertex 0.200533 35.75 -1.58738
      vertex -9.5 35.75 -9.5
      vertex 9.5 35.75 -9.5
    endloop
  endfacet
  facet normal -4.49711e-16 -1 -3.7397e-16
    outer loop
      vertex -9.5 35.75 9.5
      vertex -9.5 35.75 -9.5
      vertex -1.6 35.75 -2.41449e-15
    endloop
  endfacet
  facet normal 0 -1 0
    outer loop
      vertex 0.29981 35.75 -1.57166
      vertex 0.200533 35.75 -1.58738
      vertex 9.5 35.75 -9.5
    endloop
  endfacet
  facet normal 0 -1 0
    outer loop
      vertex -9.5 35.75 9.5
      vertex -1.6 35.75 -2.41449e-15
      vertex -1.59684 35.75 0.100465
    endloop
  endfacet
  facet normal 0 -1 0
    outer loop
      vertex 0.397904 35.75 -1.54973
      vertex 0.29981 35.75 -1.57166
      vertex 9.5 35.75 -9.5
    endloop
  endfacet
  facet normal 0 -1 0
    outer loop
      vertex -9.5 35.75 9.5
      vertex -1.59684 35.75 0.100465
      vertex -1.58738 35.75 0.200533
    endloop
  endfacet
  facet normal 0 -1 0
    outer loop
      vertex -9.5 35.75 9.5
      vertex -1.58738 35.75 0.200533
      vertex -1.57166 35.75 0.29981
    endloop
  endfacet
  facet normal 0 -1 0
    outer loop
      vertex -9.5 35.75 9.5
      vertex -1.57166 35.75 0.29981
      vertex -1.54973 35.75 0.397904
    endloop
  endfacet
  facet normal 0 -1 0
    outer loop
      vertex 0.588999 35.75 -1.48764
      vertex 0.494427 35.75 -1.52169
      vertex 9.5 35.75 -9.5
    endloop
  endfacet
  facet normal 0 -1 0
    outer loop
      vertex -9.5 35.75 9.5
      vertex -1.54973 35.75 0.397904
      vertex -1.52169 35.75 0.494427
    endloop
  endfacet
  facet normal 0 -1 0
    outer loop
      vertex 0.681247 35.75 -1.44772
      vertex 0.588999 35.75 -1.48764
      vertex 9.5 35.75 -9.5
    endloop
  endfacet
  facet normal 0 -1 0
    outer loop
      vertex -9.5 35.75 9.5
      vertex -1.52169 35.75 0.494427
      vertex -1.48764 35.75 0.588999
    endloop
  endfacet
  facet normal 0 -1 0
    outer loop
      vertex 0.770806 35.75 -1.40209
      vertex 0.681247 35.75 -1.44772
      vertex 9.5 35.75 -9.5
    endloop
  endfacet
  facet normal 0 -1 0
    outer loop
      vertex -9.5 35.75 9.5
      vertex -1.48764 35.75 0.588999
      vertex -1.44772 35.75 0.681247
    endloop
  endfacet
  facet normal 0 -1 0
    outer loop
      vertex 0.494427 35.75 -1.52169
      vertex 0.397904 35.75 -1.54973
      vertex 9.5 35.75 -9.5
    endloop
  endfacet
  facet normal 0 -1 0
    outer loop
      vertex -9.5 35.75 9.5
      vertex -1.44772 35.75 0.681247
      vertex -1.40209 35.75 0.770806
    endloop
  endfacet
  facet normal 0 -1 0
    outer loop
      vertex -9.5 35.75 9.5
      vertex -1.40209 35.75 0.770806
      vertex -1.35092 35.75 0.857323
    endloop
  endfacet
  facet normal 0 -1 0
    outer loop
      vertex 0.940456 35.75 -1.29443
      vertex 0.857323 35.75 -1.35093
      vertex 9.5 35.75 -9.5
    endloop
  endfacet
  facet normal 0 -1 0
    outer loop
      vertex -9.5 35.75 9.5
      vertex -1.35092 35.75 0.857323
      vertex -1.29443 35.75 0.940456
    endloop
  endfacet
  facet normal 0 -1 0
    outer loop
      vertex 1.01988 35.75 -1.23282
      vertex 0.940456 35.75 -1.29443
      vertex 9.5 35.75 -9.5
    endloop
  endfacet
  facet normal 0 -1 0
    outer loop
      vertex -9.5 35.75 9.5
      vertex -1.29443 35.75 0.940456
      vertex -1.23282 35.75 1.01988
    endloop
  endfacet
  facet normal -4.34984e-15 -1 6.4005e-15
    outer loop
      vertex -0.940456 35.75 1.29443
      vertex -0.857323 35.75 1.35092
      vertex 9.5 35.75 9.5
    endloop
  endfacet
  facet normal 0 -1 0
    outer loop
      vertex -9.5 35.75 9.5
      vertex -1.23282 35.75 1.01988
      vertex -1.16635 35.75 1.09527
    endloop
  endfacet
  facet normal 0 -1 0
    outer loop
      vertex 0.857323 35.75 -1.35093
      vertex 0.770806 35.75 -1.40209
      vertex 9.5 35.75 -9.5
    endloop
  endfacet
  facet normal 0 -1 0
    outer loop
      vertex -1.01988 35.75 1.23282
      vertex -9.5 35.75 9.5
      vertex -1.09527 35.75 1.16635
    endloop
  endfacet
  facet normal 3.7397e-16 -1 3.83602e-16
    outer loop
      vertex 9.5 35.75 9.5
      vertex -9.5 35.75 9.5
      vertex -1.01988 35.75 1.23282
    endloop
  endfacet
  facet normal 0 -1 0
    outer loop
      vertex 1.29443 35.75 0.940456
      vertex 1.35093 35.75 0.857323
      vertex 9.5 35.75 -9.5
    endloop
  endfacet
  facet normal -5.14483e-14 -1 6.63268e-14
    outer loop
      vertex 9.5 35.75 9.5
      vertex -1.01988 35.75 1.23282
      vertex -0.940456 35.75 1.29443
    endloop
  endfacet
  facet normal 0 -1 0
    outer loop
      vertex 1.35093 35.75 -0.857323
      vertex 1.29443 35.75 -0.940456
      vertex 9.5 35.75 -9.5
    endloop
  endfacet
  facet normal -2.07639e-15 -1 3.51098e-15
    outer loop
      vertex 9.5 35.75 9.5
      vertex -0.857323 35.75 1.35092
      vertex -0.770806 35.75 1.40209
    endloop
  endfacet
  facet normal 0 -1 0
    outer loop
      vertex 1.16635 35.75 -1.09528
      vertex 1.09528 35.75 -1.16635
      vertex 9.5 35.75 -9.5
    endloop
  endfacet
  facet normal -1.26376e-15 -1 2.4803e-15
    outer loop
      vertex 9.5 35.75 9.5
      vertex -0.770806 35.75 1.40209
      vertex -0.681247 35.75 1.44772
    endloop
  endfacet
  facet normal -8.43215e-16 -1 1.94857e-15
    outer loop
      vertex 9.5 35.75 9.5
      vertex -0.681247 35.75 1.44772
      vertex -0.588999 35.75 1.48764
    endloop
  endfacet
  facet normal 0 -1 0
    outer loop
      vertex 1.44772 35.75 -0.681247
      vertex 1.40209 35.75 -0.770806
      vertex 9.5 35.75 -9.5
    endloop
  endfacet
  facet normal -5.84031e-16 -1 1.62221e-15
    outer loop
      vertex 9.5 35.75 9.5
      vertex -0.588999 35.75 1.48764
      vertex -0.494427 35.75 1.52169
    endloop
  endfacet
  facet normal 0 -1 0
    outer loop
      vertex 1.48764 35.75 -0.588999
      vertex 1.44772 35.75 -0.681247
      vertex 9.5 35.75 -9.5
    endloop
  endfacet
  facet normal -4.068e-16 -1 1.40019e-15
    outer loop
      vertex 9.5 35.75 9.5
      vertex -0.494427 35.75 1.52169
      vertex -0.397904 35.75 1.54973
    endloop
  endfacet
  facet normal 0 -1 0
    outer loop
      vertex 1.52169 35.75 -0.494427
      vertex 1.48764 35.75 -0.588999
      vertex 9.5 35.75 -9.5
    endloop
  endfacet
  facet normal -2.76811e-16 -1 1.23836e-15
    outer loop
      vertex 9.5 35.75 9.5
      vertex -0.397904 35.75 1.54973
      vertex -0.29981 35.75 1.57166
    endloop
  endfacet
  facet normal 0 -1 0
    outer loop
      vertex 1.40209 35.75 -0.770806
      vertex 1.35093 35.75 -0.857323
      vertex 9.5 35.75 -9.5
    endloop
  endfacet
  facet normal -1.76499e-16 -1 1.11437e-15
    outer loop
      vertex 9.5 35.75 9.5
      vertex -0.29981 35.75 1.57166
      vertex -0.200533 35.75 1.58738
    endloop
  endfacet
  facet normal -9.60088e-17 -1 1.01569e-15
    outer loop
      vertex 9.5 35.75 9.5
      vertex -0.200533 35.75 1.58738
      vertex -0.100465 35.75 1.59684
    endloop
  endfacet
  facet normal 0 -1 0
    outer loop
      vertex 1.57166 35.75 -0.29981
      vertex 1.54973 35.75 -0.397904
      vertex 9.5 35.75 -9.5
    endloop
  endfacet
  facet normal -2.93733e-17 -1 9.34743e-16
    outer loop
      vertex 9.5 35.75 9.5
      vertex -0.100465 35.75 1.59684
      vertex 1.50627e-15 35.75 1.6
    endloop
  endfacet
  facet normal 0 -1 0
    outer loop
      vertex 1.58738 35.75 -0.200533
      vertex 1.57166 35.75 -0.29981
      vertex 9.5 35.75 -9.5
    endloop
  endfacet
  facet normal 2.72342e-17 -1 8.66671e-16
    outer loop
      vertex 9.5 35.75 9.5
      vertex 1.50627e-15 35.75 1.6
      vertex 0.100465 35.75 1.59684
    endloop
  endfacet
  facet normal 0 -1 0
    outer loop
      vertex 1.59684 35.75 -0.100465
      vertex 1.58738 35.75 -0.200533
      vertex 9.5 35.75 -9.5
    endloop
  endfacet
  facet normal 7.63958e-17 -1 8.08201e-16
    outer loop
      vertex 9.5 35.75 9.5
      vertex 0.100465 35.75 1.59684
      vertex 0.200533 35.75 1.58738
    endloop
  endfacet
  facet normal 0 -1 0
    outer loop
      vertex 1.6 35.75 -1.63075e-15
      vertex 1.59684 35.75 -0.100465
      vertex 9.5 35.75 -9.5
    endloop
  endfacet
  facet normal 1.19908e-16 -1 7.57063e-16
    outer loop
      vertex 9.5 35.75 9.5
      vertex 0.200533 35.75 1.58738
      vertex 0.29981 35.75 1.57166
    endloop
  endfacet
  facet normal 0 -1 0
    outer loop
      vertex 1.54973 35.75 -0.397904
      vertex 1.52169 35.75 -0.494427
      vertex 9.5 35.75 -9.5
    endloop
  endfacet
  facet normal 1.59069e-16 -1 7.1162e-16
    outer loop
      vertex 9.5 35.75 9.5
      vertex 0.29981 35.75 1.57166
      vertex 0.397904 35.75 1.54973
    endloop
  endfacet
  facet normal 1.94847e-16 -1 6.70658e-16
    outer loop
      vertex 9.5 35.75 9.5
      vertex 0.397904 35.75 1.54973
      vertex 0.494427 35.75 1.52169
    endloop
  endfacet
  facet normal 0 -1 0
    outer loop
      vertex 1.58738 35.75 0.200533
      vertex 1.59684 35.75 0.100465
      vertex 9.5 35.75 -9.5
    endloop
  endfacet
  facet normal 2.27985e-16 -1 6.33253e-16
    outer loop
      vertex 9.5 35.75 9.5
      vertex 0.494427 35.75 1.52169
      vertex 0.588999 35.75 1.48764
    endloop
  endfacet
  facet normal 0 -1 0
    outer loop
      vertex 1.57166 35.75 0.29981
      vertex 1.58738 35.75 0.200533
      vertex 9.5 35.75 -9.5
    endloop
  endfacet
  facet normal 2.59071e-16 -1 5.98681e-16
    outer loop
      vertex 9.5 35.75 9.5
      vertex 0.588999 35.75 1.48764
      vertex 0.681247 35.75 1.44772
    endloop
  endfacet
  facet normal 0 -1 0
    outer loop
      vertex 1.54973 35.75 0.397904
      vertex 1.57166 35.75 0.29981
      vertex 9.5 35.75 -9.5
    endloop
  endfacet
  facet normal 2.88575e-16 -1 5.66368e-16
    outer loop
      vertex 9.5 35.75 9.5
      vertex 0.681247 35.75 1.44772
      vertex 0.770806 35.75 1.40209
    endloop
  endfacet
  facet normal 0 -1 0
    outer loop
      vertex 1.52169 35.75 0.494427
      vertex 1.54973 35.75 0.397904
      vertex 9.5 35.75 -9.5
    endloop
  endfacet
  facet normal 3.16895e-16 -1 5.35841e-16
    outer loop
      vertex 9.5 35.75 9.5
      vertex 0.770806 35.75 1.40209
      vertex 0.857323 35.75 1.35092
    endloop
  endfacet
  facet normal 0 -1 0
    outer loop
      vertex 1.48764 35.75 0.588999
      vertex 1.52169 35.75 0.494427
      vertex 9.5 35.75 -9.5
    endloop
  endfacet
  facet normal 3.44364e-16 -1 5.06708e-16
    outer loop
      vertex 9.5 35.75 9.5
      vertex 0.857323 35.75 1.35092
      vertex 0.940456 35.75 1.29443
    endloop
  endfacet
  facet normal 0 -1 0
    outer loop
      vertex 1.44772 35.75 0.681247
      vertex 1.48764 35.75 0.588999
      vertex 9.5 35.75 -9.5
    endloop
  endfacet
  facet normal 3.71271e-16 -1 4.7864e-16
    outer loop
      vertex 9.5 35.75 9.5
      vertex 0.940456 35.75 1.29443
      vertex 1.01988 35.75 1.23282
    endloop
  endfacet
  facet normal 0 -1 0
    outer loop
      vertex 1.40209 35.75 0.770806
      vertex 1.44772 35.75 0.681247
      vertex 9.5 35.75 -9.5
    endloop
  endfacet
  facet normal 3.97897e-16 -1 4.51328e-16
    outer loop
      vertex 9.5 35.75 9.5
      vertex 1.01988 35.75 1.23282
      vertex 1.09528 35.75 1.16635
    endloop
  endfacet
  facet normal 0 -1 0
    outer loop
      vertex 1.35093 35.75 0.857323
      vertex 1.40209 35.75 0.770806
      vertex 9.5 35.75 -9.5
    endloop
  endfacet
  facet normal 5.01977e-14 -1 -4.97732e-14
    outer loop
      vertex 9.5 35.75 9.5
      vertex 1.09528 35.75 1.16635
      vertex 1.16635 35.75 1.09527
    endloop
  endfacet
  facet normal 0 -1 0
    outer loop
      vertex 9.5 35.75 9.5
      vertex 1.23282 35.75 1.01988
      vertex 9.5 35.75 -9.5
    endloop
  endfacet
  facet normal 0 -1 0
    outer loop
      vertex 9.5 35.75 9.5
      vertex 1.16635 35.75 1.09527
      vertex 1.23282 35.75 1.01988
    endloop
  endfacet
  facet normal 0 -1 0
    outer loop
      vertex 1.23282 35.75 1.01988
      vertex 1.29443 35.75 0.940456
      vertex 9.5 35.75 -9.5
    endloop
  endfacet
  facet normal 0 -1 0
    outer loop
      vertex 1.29443 35.75 -0.940456
      vertex 1.23282 35.75 -1.01988
      vertex 9.5 35.75 -9.5
    endloop
  endfacet
  facet normal 0 -1 0
    outer loop
      vertex 1.23282 35.75 -1.01988
      vertex 1.16635 35.75 -1.09528
      vertex 9.5 35.75 -9.5
    endloop
  endfacet
  facet normal -0 -1 0
    outer loop
      vertex 0.100465 35.75 -1.59684
      vertex -9.5 35.75 -9.5
      vertex 0.200533 35.75 -1.58738
    endloop
  endfacet
  facet normal -0 -1 0
    outer loop
      vertex 2.29001e-15 35.75 -1.6
      vertex -9.5 35.75 -9.5
      vertex 0.100465 35.75 -1.59684
    endloop
  endfacet
  facet normal 0 -1 0
    outer loop
      vertex -0.100465 35.75 -1.59684
      vertex -9.5 35.75 -9.5
      vertex 2.29001e-15 35.75 -1.6
    endloop
  endfacet
  facet normal 0 -1 0
    outer loop
      vertex -0.200533 35.75 -1.58738
      vertex -9.5 35.75 -9.5
      vertex -0.100465 35.75 -1.59684
    endloop
  endfacet
  facet normal 0 -1 0
    outer loop
      vertex -0.29981 35.75 -1.57166
      vertex -9.5 35.75 -9.5
      vertex -0.200533 35.75 -1.58738
    endloop
  endfacet
  facet normal 0 -1 0
    outer loop
      vertex -0.397904 35.75 -1.54973
      vertex -9.5 35.75 -9.5
      vertex -0.29981 35.75 -1.57166
    endloop
  endfacet
  facet normal 0 -1 0
    outer loop
      vertex -0.494427 35.75 -1.52169
      vertex -9.5 35.75 -9.5
      vertex -0.397904 35.75 -1.54973
    endloop
  endfacet
  facet normal 0 -1 0
    outer loop
      vertex -0.588999 35.75 -1.48764
      vertex -9.5 35.75 -9.5
      vertex -0.494427 35.75 -1.52169
    endloop
  endfacet
  facet normal 0 -1 0
    outer loop
      vertex -0.681247 35.75 -1.44772
      vertex -9.5 35.75 -9.5
      vertex -0.588999 35.75 -1.48764
    endloop
  endfacet
  facet normal 0 -1 0
    outer loop
      vertex -0.770806 35.75 -1.40209
      vertex -9.5 35.75 -9.5
      vertex -0.681247 35.75 -1.44772
    endloop
  endfacet
  facet normal 0 -1 0
    outer loop
      vertex -0.857323 35.75 -1.35093
      vertex -9.5 35.75 -9.5
      vertex -0.770806 35.75 -1.40209
    endloop
  endfacet
  facet normal 0 -1 0
    outer loop
      vertex -0.940456 35.75 -1.29443
      vertex -9.5 35.75 -9.5
      vertex -0.857323 35.75 -1.35093
    endloop
  endfacet
  facet normal 0 -1 0
    outer loop
      vertex -1.01988 35.75 -1.23282
      vertex -9.5 35.75 -9.5
      vertex -0.940456 35.75 -1.29443
    endloop
  endfacet
  facet normal 0 -1 0
    outer loop
      vertex -1.09527 35.75 -1.16635
      vertex -9.5 35.75 -9.5
      vertex -1.01988 35.75 -1.23282
    endloop
  endfacet
  facet normal 4.97732e-14 -1 -5.01977e-14
    outer loop
      vertex -1.16635 35.75 -1.09528
      vertex -9.5 35.75 -9.5
      vertex -1.09527 35.75 -1.16635
    endloop
  endfacet
  facet normal -4.51328e-16 -1 -3.97897e-16
    outer loop
      vertex -1.23282 35.75 -1.01988
      vertex -9.5 35.75 -9.5
      vertex -1.16635 35.75 -1.09528
    endloop
  endfacet
  facet normal -4.7864e-16 -1 -3.71271e-16
    outer loop
      vertex -1.29443 35.75 -0.940456
      vertex -9.5 35.75 -9.5
      vertex -1.23282 35.75 -1.01988
    endloop
  endfacet
  facet normal -5.06708e-16 -1 -3.44364e-16
    outer loop
      vertex -1.35092 35.75 -0.857323
      vertex -9.5 35.75 -9.5
      vertex -1.29443 35.75 -0.940456
    endloop
  endfacet
  facet normal -5.35841e-16 -1 -3.16895e-16
    outer loop
      vertex -1.40209 35.75 -0.770806
      vertex -9.5 35.75 -9.5
      vertex -1.35092 35.75 -0.857323
    endloop
  endfacet
  facet normal -5.66368e-16 -1 -2.88575e-16
    outer loop
      vertex -1.44772 35.75 -0.681247
      vertex -9.5 35.75 -9.5
      vertex -1.40209 35.75 -0.770806
    endloop
  endfacet
  facet normal -5.98681e-16 -1 -2.59071e-16
    outer loop
      vertex -1.48764 35.75 -0.588999
      vertex -9.5 35.75 -9.5
      vertex -1.44772 35.75 -0.681247
    endloop
  endfacet
  facet normal -6.33253e-16 -1 -2.27985e-16
    outer loop
      vertex -1.52169 35.75 -0.494427
      vertex -9.5 35.75 -9.5
      vertex -1.48764 35.75 -0.588999
    endloop
  endfacet
  facet normal -6.70658e-16 -1 -1.94847e-16
    outer loop
      vertex -1.54973 35.75 -0.397904
      vertex -9.5 35.75 -9.5
      vertex -1.52169 35.75 -0.494427
    endloop
  endfacet
  facet normal -7.1162e-16 -1 -1.59069e-16
    outer loop
      vertex -1.57166 35.75 -0.29981
      vertex -9.5 35.75 -9.5
      vertex -1.54973 35.75 -0.397904
    endloop
  endfacet
  facet normal -7.57063e-16 -1 -1.19908e-16
    outer loop
      vertex -1.58738 35.75 -0.200533
      vertex -9.5 35.75 -9.5
      vertex -1.57166 35.75 -0.29981
    endloop
  endfacet
  facet normal -8.08201e-16 -1 -7.63958e-17
    outer loop
      vertex -1.59684 35.75 -0.100465
      vertex -9.5 35.75 -9.5
      vertex -1.58738 35.75 -0.200533
    endloop
  endfacet
  facet normal -8.66671e-16 -1 -2.72342e-17
    outer loop
      vertex -1.6 35.75 -2.41449e-15
      vertex -9.5 35.75 -9.5
      vertex -1.59684 35.75 -0.100465
    endloop
  endfacet
  facet normal 0 -1 0
    outer loop
      vertex 1.09528 35.75 -1.16635
      vertex 1.01988 35.75 -1.23282
      vertex 9.5 35.75 -9.5
    endloop
  endfacet
  facet normal 0 -1 -0
    outer loop
      vertex -1.16635 35.75 1.09527
      vertex -1.09527 35.75 1.16635
      vertex -9.5 35.75 9.5
    endloop
  endfacet
  facet normal 0 -1 0
    outer loop
      vertex 1.59684 35.75 0.100465
      vertex 1.6 35.75 -1.63075e-15
      vertex 9.5 35.75 -9.5
    endloop
  endfacet
  facet normal 9.34925e-17 1.24657e-16 -1
    outer loop
      vertex -9.5 35.75 -9.5
      vertex -9.5 64.25 -9.5
      vertex 9.5 35.75 -9.5
    endloop
  endfacet
  facet normal 9.34925e-17 1.24657e-16 -1
    outer loop
      vertex 9.5 35.75 -9.5
      vertex -9.5 64.25 -9.5
      vertex 9.5 64.25 -9.5
    endloop
  endfacet
  facet normal -6.99267e-32 1 7.4794e-16
    outer loop
      vertex -9.5 64.25 -9.5
      vertex -9.5 64.25 9.5
      vertex 9.5 64.25 -9.5
    endloop
  endfacet
  facet normal -7.4794e-16 1 -6.99267e-32
    outer loop
      vertex 9.5 64.25 -9.5
      vertex -9.5 64.25 9.5
      vertex 9.5 64.25 9.5
    endloop
  endfacet
  facet normal -9.34925e-17 9.34925e-17 1
    outer loop
      vertex -8.5 36.75 9.5
      vertex -9.5 35.75 9.5
      vertex 9.5 35.75 9.5
    endloop
  endfacet
  facet normal -1.04492e-16 -1.04492e-16 1
    outer loop
      vertex 8.5 36.75 9.5
      vertex -8.5 36.75 9.5
      vertex 9.5 35.75 9.5
    endloop
  endfacet
  facet normal 1.24657e-16 -1.24657e-16 1
    outer loop
      vertex -9.5 64.25 9.5
      vertex -9.5 35.75 9.5
      vertex -8.5 36.75 9.5
    endloop
  endfacet
  facet normal -9.34925e-17 -9.34925e-17 1
    outer loop
      vertex 9.5 64.25 9.5
      vertex -9.5 64.25 9.5
      vertex -8.5 63.25 9.5
    endloop
  endfacet
  facet normal 1.24657e-16 -1.24657e-16 1
    outer loop
      vertex 9.5 64.25 9.5
      vertex 8.5 63.25 9.5
      vertex 9.5 35.75 9.5
    endloop
  endfacet
  facet normal -1.04492e-16 1.04492e-16 1
    outer loop
      vertex 9.5 64.25 9.5
      vertex -8.5 63.25 9.5
      vertex 8.5 63.25 9.5
    endloop
  endfacet
  facet normal -1.34065e-16 -1.34065e-16 1
    outer loop
      vertex 8.5 63.25 9.5
      vertex 8.5 36.75 9.5
      vertex 9.5 35.75 9.5
    endloop
  endfacet
  facet normal -1.34065e-16 -1.34065e-16 1
    outer loop
      vertex -8.5 36.75 9.5
      vertex -8.5 63.25 9.5
      vertex -9.5 64.25 9.5
    endloop
  endfacet
  facet normal 1 1.24657e-16 9.34925e-17
    outer loop
      vertex 9.5 35.75 9.5
      vertex 9.5 35.75 -9.5
      vertex 9.5 64.25 -9.5
    endloop
  endfacet
  facet normal 1 1.24657e-16 9.34925e-17
    outer loop
      vertex 9.5 64.25 9.5
      vertex 9.5 35.75 9.5
      vertex 9.5 64.25 -9.5
    endloop
  endfacet
  facet normal 0.999507 2.32396e-16 -0.0314084
    outer loop
      vertex -1.59684 36.75 0.100465
      vertex -1.59684 35.75 0.100465
      vertex -1.6 35.75 -2.41449e-15
    endloop
  endfacet
  facet normal 0.999507 2.32755e-16 -0.0314084
    outer loop
      vertex -1.6 36.75 -2.06999e-15
      vertex -1.59684 36.75 0.100465
      vertex -1.6 35.75 -2.41449e-15
    endloop
  endfacet
  facet normal 0.999507 2.11416e-16 0.0314084
    outer loop
      vertex -1.6 35.75 -2.41449e-15
      vertex -1.59684 35.75 -0.100465
      vertex -1.59684 36.75 -0.100465
    endloop
  endfacet
  facet normal 0.999507 2.11115e-16 0.0314084
    outer loop
      vertex -1.6 36.75 -2.06999e-15
      vertex -1.6 35.75 -2.41449e-15
      vertex -1.59684 36.75 -0.100465
    endloop
  endfacet
  facet normal 0.995562 1.89844e-16 0.0941062
    outer loop
      vertex -1.59684 35.75 -0.100465
      vertex -1.58738 35.75 -0.200533
      vertex -1.58738 36.75 -0.200533
    endloop
  endfacet
  facet normal 0.995562 1.89716e-16 0.0941062
    outer loop
      vertex -1.59684 36.75 -0.100465
      vertex -1.59684 35.75 -0.100465
      vertex -1.58738 36.75 -0.200533
    endloop
  endfacet
  facet normal 0.987688 1.6827e-16 0.156435
    outer loop
      vertex -1.58738 35.75 -0.200533
      vertex -1.57166 35.75 -0.29981
      vertex -1.57166 36.75 -0.29981
    endloop
  endfacet
  facet normal 0.987688 1.67207e-16 0.156435
    outer loop
      vertex -1.58738 36.75 -0.200533
      vertex -1.58738 35.75 -0.200533
      vertex -1.57166 36.75 -0.29981
    endloop
  endfacet
  facet normal 0.975916 1.42382e-16 0.218147
    outer loop
      vertex -1.57166 35.75 -0.29981
      vertex -1.54973 35.75 -0.397904
      vertex -1.54973 36.75 -0.397904
    endloop
  endfacet
  facet normal 0.975916 1.44039e-16 0.218147
    outer loop
      vertex -1.57166 36.75 -0.29981
      vertex -1.57166 35.75 -0.29981
      vertex -1.54973 36.75 -0.397904
    endloop
  endfacet
  facet normal 0.960292 3.19282e-16 0.278995
    outer loop
      vertex -1.54973 35.75 -0.397904
      vertex -1.52169 35.75 -0.494427
      vertex -1.52169 36.75 -0.494427
    endloop
  endfacet
  facet normal 0.960292 1.20304e-16 0.278995
    outer loop
      vertex -1.54973 36.75 -0.397904
      vertex -1.54973 35.75 -0.397904
      vertex -1.52169 36.75 -0.494427
    endloop
  endfacet
  facet normal 0.940881 9.49216e-17 0.338738
    outer loop
      vertex -1.52169 35.75 -0.494427
      vertex -1.48764 35.75 -0.588999
      vertex -1.48764 36.75 -0.588999
    endloop
  endfacet
  facet normal 0.940881 2.86209e-16 0.338738
    outer loop
      vertex -1.52169 36.75 -0.494427
      vertex -1.52169 35.75 -0.494427
      vertex -1.48764 36.75 -0.588999
    endloop
  endfacet
  facet normal 0.917756 7.33482e-17 0.397146
    outer loop
      vertex -1.48764 35.75 -0.588999
      vertex -1.44772 35.75 -0.681247
      vertex -1.44772 36.75 -0.681247
    endloop
  endfacet
  facet normal 0.917756 7.15066e-17 0.397146
    outer loop
      vertex -1.48764 36.75 -0.588999
      vertex -1.48764 35.75 -0.588999
      vertex -1.44772 36.75 -0.681247
    endloop
  endfacet
  facet normal 0.891009 4.31463e-17 0.453986
    outer loop
      vertex -1.44772 35.75 -0.681247
      vertex -1.40209 35.75 -0.770806
      vertex -1.40209 36.75 -0.770806
    endloop
  endfacet
  facet normal 0.891009 4.66361e-17 0.453986
    outer loop
      vertex -1.44772 36.75 -0.681247
      vertex -1.44772 35.75 -0.681247
      vertex -1.40209 36.75 -0.770806
    endloop
  endfacet
  facet normal 0.860742 1.72585e-17 0.509041
    outer loop
      vertex -1.40209 35.75 -0.770806
      vertex -1.35092 35.75 -0.857323
      vertex -1.35092 36.75 -0.857323
    endloop
  endfacet
  facet normal 0.860742 2.15783e-17 0.509041
    outer loop
      vertex -1.40209 36.75 -0.770806
      vertex -1.40209 35.75 -0.770806
      vertex -1.35092 36.75 -0.857323
    endloop
  endfacet
  facet normal 0.827077 -6.90339e-17 0.562089
    outer loop
      vertex -1.35092 35.75 -0.857323
      vertex -1.29443 35.75 -0.940456
      vertex -1.29443 36.75 -0.940456
    endloop
  endfacet
  facet normal 0.827077 -3.56546e-18 0.562089
    outer loop
      vertex -1.35092 36.75 -0.857323
      vertex -1.35092 35.75 -0.857323
      vertex -1.29443 36.75 -0.940456
    endloop
  endfacet
  facet normal 0.790155 -1.03551e-16 0.612907
    outer loop
      vertex -1.29443 35.75 -0.940456
      vertex -1.23282 35.75 -1.01988
      vertex -1.23282 36.75 -1.01988
    endloop
  endfacet
  facet normal 0.790155 -9.67357e-17 0.612907
    outer loop
      vertex -1.29443 36.75 -0.940456
      vertex -1.29443 35.75 -0.940456
      vertex -1.23282 36.75 -1.01988
    endloop
  endfacet
  facet normal 0.750113 -1.29439e-16 0.66131
    outer loop
      vertex -1.23282 35.75 -1.01988
      vertex -1.16635 35.75 -1.09528
      vertex -1.16635 36.75 -1.09528
    endloop
  endfacet
  facet normal 0.750113 -1.27122e-16 0.66131
    outer loop
      vertex -1.23282 36.75 -1.01988
      vertex -1.23282 35.75 -1.01988
      vertex -1.16635 36.75 -1.09528
    endloop
  endfacet
  facet normal 0.707107 -1.55325e-16 0.707107
    outer loop
      vertex -1.16635 35.75 -1.09528
      vertex -1.09527 35.75 -1.16635
      vertex -1.09527 36.75 -1.16635
    endloop
  endfacet
  facet normal 0.707107 -1.57009e-16 0.707107
    outer loop
      vertex -1.16635 36.75 -1.09528
      vertex -1.16635 35.75 -1.09528
      vertex -1.09527 36.75 -1.16635
    endloop
  endfacet
  facet normal 0.66131 -1.81214e-16 0.750113
    outer loop
      vertex -1.09527 35.75 -1.16635
      vertex -1.01988 35.75 -1.23282
      vertex -1.01988 36.75 -1.23282
    endloop
  endfacet
  facet normal 0.66131 -1.86277e-16 0.750113
    outer loop
      vertex -1.09527 36.75 -1.16635
      vertex -1.09527 35.75 -1.16635
      vertex -1.01988 36.75 -1.23282
    endloop
  endfacet
  facet normal 0.612907 -2.07101e-16 0.790155
    outer loop
      vertex -1.01988 35.75 -1.23282
      vertex -0.940456 35.75 -1.29443
      vertex -0.940456 36.75 -1.29443
    endloop
  endfacet
  facet normal 0.612907 -2.14807e-16 0.790155
    outer loop
      vertex -1.01988 36.75 -1.23282
      vertex -1.01988 35.75 -1.23282
      vertex -0.940456 36.75 -1.29443
    endloop
  endfacet
  facet normal 0.562089 -1.72585e-16 0.827077
    outer loop
      vertex -0.940456 35.75 -1.29443
      vertex -0.857323 35.75 -1.35093
      vertex -0.857323 36.75 -1.35093
    endloop
  endfacet
  facet normal 0.562089 -2.42487e-16 0.827077
    outer loop
      vertex -0.940456 36.75 -1.29443
      vertex -0.940456 35.75 -1.29443
      vertex -0.857323 36.75 -1.35093
    endloop
  endfacet
  facet normal 0.509041 -1.72585e-17 0.860742
    outer loop
      vertex -0.857323 35.75 -1.35093
      vertex -0.770806 35.75 -1.40209
      vertex -0.770806 36.75 -1.40209
    endloop
  endfacet
  facet normal 0.509041 -2.12701e-16 0.860742
    outer loop
      vertex -0.857323 36.75 -1.35093
      vertex -0.857323 35.75 -1.35093
      vertex -0.770806 36.75 -1.40209
    endloop
  endfacet
  facet normal 0.453986 -9.49218e-17 0.891009
    outer loop
      vertex -0.770806 35.75 -1.40209
      vertex -0.681247 35.75 -1.44772
      vertex -0.681247 36.75 -1.44772
    endloop
  endfacet
  facet normal 0.453986 -4.66361e-17 0.891009
    outer loop
      vertex -0.770806 36.75 -1.40209
      vertex -0.770806 35.75 -1.40209
      vertex -0.681247 36.75 -1.44772
    endloop
  endfacet
  facet normal 0.397146 -1.1218e-16 0.917756
    outer loop
      vertex -0.681247 35.75 -1.44772
      vertex -0.588999 35.75 -1.48764
      vertex -0.588999 36.75 -1.48764
    endloop
  endfacet
  facet normal 0.397146 -1.15599e-16 0.917756
    outer loop
      vertex -0.681247 36.75 -1.44772
      vertex -0.681247 35.75 -1.44772
      vertex -0.588999 36.75 -1.48764
    endloop
  endfacet
  facet normal 0.338738 -1.33753e-16 0.940881
    outer loop
      vertex -0.588999 35.75 -1.48764
      vertex -0.494427 35.75 -1.52169
      vertex -0.494427 36.75 -1.52169
    endloop
  endfacet
  facet normal 0.338738 -1.33703e-16 0.940881
    outer loop
      vertex -0.588999 36.75 -1.48764
      vertex -0.588999 35.75 -1.48764
      vertex -0.494427 36.75 -1.52169
    endloop
  endfacet
  facet normal 0.278995 -3.49485e-16 0.960292
    outer loop
      vertex -0.494427 35.75 -1.52169
      vertex -0.397904 35.75 -1.54973
      vertex -0.397904 36.75 -1.54973
    endloop
  endfacet
  facet normal 0.278995 -1.51278e-16 0.960292
    outer loop
      vertex -0.494427 36.75 -1.52169
      vertex -0.494427 35.75 -1.52169
      vertex -0.397904 36.75 -1.54973
    endloop
  endfacet
  facet normal 0.218147 -3.71055e-16 0.975916
    outer loop
      vertex -0.397904 35.75 -1.54973
      vertex -0.29981 35.75 -1.57166
      vertex -0.29981 36.75 -1.57166
    endloop
  endfacet
  facet normal 0.218147 -3.72846e-16 0.975916
    outer loop
      vertex -0.397904 36.75 -1.54973
      vertex -0.397904 35.75 -1.54973
      vertex -0.29981 36.75 -1.57166
    endloop
  endfacet
  facet normal 0.156435 -4.01259e-16 0.987688
    outer loop
      vertex -0.29981 35.75 -1.57166
      vertex -0.200533 35.75 -1.58738
      vertex -0.200533 36.75 -1.58738
    endloop
  endfacet
  facet normal 0.156435 -3.95202e-16 0.987688
    outer loop
      vertex -0.29981 36.75 -1.57166
      vertex -0.29981 35.75 -1.57166
      vertex -0.200533 36.75 -1.58738
    endloop
  endfacet
  facet normal 0.0941062 -4.19598e-16 0.995562
    outer loop
      vertex -0.200533 35.75 -1.58738
      vertex -0.100465 35.75 -1.59684
      vertex -0.100465 36.75 -1.59684
    endloop
  endfacet
  facet normal 0.0941062 -4.18611e-16 0.995562
    outer loop
      vertex -0.200533 36.75 -1.58738
      vertex -0.200533 35.75 -1.58738
      vertex -0.100465 36.75 -1.59684
    endloop
  endfacet
  facet normal 0.0314084 -4.36315e-16 0.999507
    outer loop
      vertex -0.100465 35.75 -1.59684
      vertex 2.29001e-15 35.75 -1.6
      vertex 2.04509e-15 36.75 -1.6
    endloop
  endfacet
  facet normal 0.0314084 -4.3646e-16 0.999507
    outer loop
      vertex -0.100465 36.75 -1.59684
      vertex -0.100465 35.75 -1.59684
      vertex 2.04509e-15 36.75 -1.6
    endloop
  endfacet
  facet normal -0.0314084 -2.29753e-16 0.999507
    outer loop
      vertex 2.29001e-15 35.75 -1.6
      vertex 0.100465 35.75 -1.59684
      vertex 0.100465 36.75 -1.59684
    endloop
  endfacet
  facet normal -0.0314084 -4.51563e-16 0.999507
    outer loop
      vertex 2.04509e-15 36.75 -1.6
      vertex 2.29001e-15 35.75 -1.6
      vertex 0.100465 36.75 -1.59684
    endloop
  endfacet
  facet normal -0.0941062 -2.44855e-16 0.995562
    outer loop
      vertex 0.100465 35.75 -1.59684
      vertex 0.200533 35.75 -1.58738
      vertex 0.200533 36.75 -1.58738
    endloop
  endfacet
  facet normal -0.0941062 -2.43261e-16 0.995562
    outer loop
      vertex 0.100465 36.75 -1.59684
      vertex 0.100465 35.75 -1.59684
      vertex 0.200533 36.75 -1.58738
    endloop
  endfacet
  facet normal -0.156435 -2.61034e-16 0.987688
    outer loop
      vertex 0.200533 35.75 -1.58738
      vertex 0.29981 35.75 -1.57166
      vertex 0.29981 36.75 -1.57166
    endloop
  endfacet
  facet normal -0.156435 -2.58388e-16 0.987688
    outer loop
      vertex 0.200533 36.75 -1.58738
      vertex 0.200533 35.75 -1.58738
      vertex 0.29981 36.75 -1.57166
    endloop
  endfacet
  facet normal -0.218147 -2.80449e-16 0.975916
    outer loop
      vertex 0.29981 35.75 -1.57166
      vertex 0.397904 35.75 -1.54973
      vertex 0.397904 36.75 -1.54973
    endloop
  endfacet
  facet normal -0.218147 -2.77245e-16 0.975916
    outer loop
      vertex 0.29981 36.75 -1.57166
      vertex 0.29981 35.75 -1.57166
      vertex 0.397904 36.75 -1.54973
    endloop
  endfacet
  facet normal -0.278995 -2.71821e-16 0.960292
    outer loop
      vertex 0.397904 35.75 -1.54973
      vertex 0.494427 35.75 -1.52169
      vertex 0.494427 36.75 -1.52169
    endloop
  endfacet
  facet normal -0.278995 -2.90665e-16 0.960292
    outer loop
      vertex 0.397904 36.75 -1.54973
      vertex 0.397904 35.75 -1.54973
      vertex 0.494427 36.75 -1.52169
    endloop
  endfacet
  facet normal -0.338738 -4.96181e-16 0.940881
    outer loop
      vertex 0.494427 35.75 -1.52169
      vertex 0.588999 35.75 -1.48764
      vertex 0.588999 36.75 -1.48764
    endloop
  endfacet
  facet normal -0.338738 -2.84132e-16 0.940881
    outer loop
      vertex 0.494427 36.75 -1.52169
      vertex 0.494427 35.75 -1.52169
      vertex 0.588999 36.75 -1.48764
    endloop
  endfacet
  facet normal -0.397146 -4.96179e-16 0.917756
    outer loop
      vertex 0.588999 35.75 -1.48764
      vertex 0.681247 35.75 -1.44772
      vertex 0.681247 36.75 -1.44772
    endloop
  endfacet
  facet normal -0.397146 -4.95749e-16 0.917756
    outer loop
      vertex 0.588999 36.75 -1.48764
      vertex 0.588999 35.75 -1.48764
      vertex 0.681247 36.75 -1.44772
    endloop
  endfacet
  facet normal -0.453986 -5.52272e-16 0.891009
    outer loop
      vertex 0.681247 35.75 -1.44772
      vertex 0.770806 35.75 -1.40209
      vertex 0.770806 36.75 -1.40209
    endloop
  endfacet
  facet normal -0.453986 -4.96493e-16 0.891009
    outer loop
      vertex 0.681247 36.75 -1.44772
      vertex 0.681247 35.75 -1.44772
      vertex 0.770806 36.75 -1.40209
    endloop
  endfacet
  facet normal -0.509041 -5.5227e-16 0.860742
    outer loop
      vertex 0.770806 35.75 -1.40209
      vertex 0.857323 35.75 -1.35093
      vertex 0.857323 36.75 -1.35093
    endloop
  endfacet
  facet normal -0.509041 -5.51791e-16 0.860742
    outer loop
      vertex 0.770806 36.75 -1.40209
      vertex 0.770806 35.75 -1.40209
      vertex 0.857323 36.75 -1.35093
    endloop
  endfacet
  facet normal -0.562089 -4.91867e-16 0.827077
    outer loop
      vertex 0.857323 35.75 -1.35093
      vertex 0.940456 35.75 -1.29443
      vertex 0.940456 36.75 -1.29443
    endloop
  endfacet
  facet normal -0.562089 -5.54509e-16 0.827077
    outer loop
      vertex 0.857323 36.75 -1.35093
      vertex 0.857323 35.75 -1.35093
      vertex 0.940456 36.75 -1.29443
    endloop
  endfacet
  facet normal -0.612907 -3.10652e-16 0.790155
    outer loop
      vertex 0.940456 35.75 -1.29443
      vertex 1.01988 35.75 -1.23282
      vertex 1.01988 36.75 -1.23282
    endloop
  endfacet
  facet normal -0.612907 -4.86992e-16 0.790155
    outer loop
      vertex 0.940456 36.75 -1.29443
      vertex 0.940456 35.75 -1.29443
      vertex 1.01988 36.75 -1.23282
    endloop
  endfacet
  facet normal -0.66131 -3.19282e-16 0.750113
    outer loop
      vertex 1.01988 35.75 -1.23282
      vertex 1.09528 35.75 -1.16635
      vertex 1.09528 36.75 -1.16635
    endloop
  endfacet
  facet normal -0.66131 -3.13399e-16 0.750113
    outer loop
      vertex 1.01988 36.75 -1.23282
      vertex 1.01988 35.75 -1.23282
      vertex 1.09528 36.75 -1.16635
    endloop
  endfacet
  facet normal -0.707107 -3.14018e-16 0.707107
    outer loop
      vertex 1.16635 35.75 -1.09528
      vertex 1.16635 36.75 -1.09528
      vertex 1.09528 35.75 -1.16635
    endloop
  endfacet
  facet normal -0.707107 -3.14018e-16 0.707107
    outer loop
      vertex 1.09528 35.75 -1.16635
      vertex 1.16635 36.75 -1.09528
      vertex 1.09528 36.75 -1.16635
    endloop
  endfacet
  facet normal -0.750113 -3.13399e-16 0.66131
    outer loop
      vertex 1.23282 35.75 -1.01988
      vertex 1.23282 36.75 -1.01988
      vertex 1.16635 35.75 -1.09528
    endloop
  endfacet
  facet normal -0.750113 -3.13399e-16 0.66131
    outer loop
      vertex 1.16635 35.75 -1.09528
      vertex 1.23282 36.75 -1.01988
      vertex 1.16635 36.75 -1.09528
    endloop
  endfacet
  facet normal -0.790155 -3.79589e-16 0.612907
    outer loop
      vertex 1.29443 35.75 -0.940456
      vertex 1.29443 36.75 -0.940456
      vertex 1.23282 35.75 -1.01988
    endloop
  endfacet
  facet normal -0.790155 -3.11542e-16 0.612907
    outer loop
      vertex 1.23282 35.75 -1.01988
      vertex 1.29443 36.75 -0.940456
      vertex 1.23282 36.75 -1.01988
    endloop
  endfacet
  facet normal -0.827077 -3.70861e-16 0.562089
    outer loop
      vertex 1.35093 35.75 -0.857323
      vertex 1.35093 36.75 -0.857323
      vertex 1.29443 35.75 -0.940456
    endloop
  endfacet
  facet normal -0.827077 -3.70861e-16 0.562089
    outer loop
      vertex 1.29443 35.75 -0.940456
      vertex 1.35093 36.75 -0.857323
      vertex 1.29443 36.75 -0.940456
    endloop
  endfacet
  facet normal -0.860742 -3.60668e-16 0.509041
    outer loop
      vertex 1.40209 35.75 -0.770806
      vertex 1.40209 36.75 -0.770806
      vertex 1.35093 35.75 -0.857323
    endloop
  endfacet
  facet normal -0.860742 -3.60668e-16 0.509041
    outer loop
      vertex 1.35093 35.75 -0.857323
      vertex 1.40209 36.75 -0.770806
      vertex 1.35093 36.75 -0.857323
    endloop
  endfacet
  facet normal -0.891009 -3.99454e-16 0.453986
    outer loop
      vertex 1.44772 35.75 -0.681247
      vertex 1.44772 36.75 -0.681247
      vertex 1.40209 35.75 -0.770806
    endloop
  endfacet
  facet normal -0.891009 -3.49051e-16 0.453986
    outer loop
      vertex 1.40209 35.75 -0.770806
      vertex 1.44772 36.75 -0.681247
      vertex 1.40209 36.75 -0.770806
    endloop
  endfacet
  facet normal -0.917756 -3.36059e-16 0.397146
    outer loop
      vertex 1.48764 35.75 -0.588999
      vertex 1.48764 36.75 -0.588999
      vertex 1.44772 35.75 -0.681247
    endloop
  endfacet
  facet normal -0.917756 -3.80151e-16 0.397146
    outer loop
      vertex 1.44772 35.75 -0.681247
      vertex 1.48764 36.75 -0.588999
      vertex 1.44772 36.75 -0.681247
    endloop
  endfacet
  facet normal -0.940881 -5.30657e-16 0.338738
    outer loop
      vertex 1.52169 35.75 -0.494427
      vertex 1.52169 36.75 -0.494427
      vertex 1.48764 35.75 -0.588999
    endloop
  endfacet
  facet normal -0.940881 -3.2174e-16 0.338738
    outer loop
      vertex 1.48764 35.75 -0.588999
      vertex 1.52169 36.75 -0.494427
      vertex 1.48764 36.75 -0.588999
    endloop
  endfacet
  facet normal -0.960292 -3.06152e-16 0.278995
    outer loop
      vertex 1.54973 35.75 -0.397904
      vertex 1.54973 36.75 -0.397904
      vertex 1.52169 35.75 -0.494427
    endloop
  endfacet
  facet normal -0.960292 -5.1938e-16 0.278995
    outer loop
      vertex 1.52169 35.75 -0.494427
      vertex 1.54973 36.75 -0.397904
      vertex 1.52169 36.75 -0.494427
    endloop
  endfacet
  facet normal -0.975916 -2.89354e-16 0.218147
    outer loop
      vertex 1.57166 35.75 -0.29981
      vertex 1.57166 36.75 -0.29981
      vertex 1.54973 35.75 -0.397904
    endloop
  endfacet
  facet normal -0.975916 -2.89354e-16 0.218147
    outer loop
      vertex 1.54973 35.75 -0.397904
      vertex 1.57166 36.75 -0.29981
      vertex 1.54973 36.75 -0.397904
    endloop
  endfacet
  facet normal -0.987688 -2.71414e-16 0.156435
    outer loop
      vertex 1.58738 35.75 -0.200533
      vertex 1.58738 36.75 -0.200533
      vertex 1.57166 35.75 -0.29981
    endloop
  endfacet
  facet normal -0.987688 -2.71414e-16 0.156435
    outer loop
      vertex 1.57166 35.75 -0.29981
      vertex 1.58738 36.75 -0.200533
      vertex 1.57166 36.75 -0.29981
    endloop
  endfacet
  facet normal -0.995562 -2.53709e-16 0.0941062
    outer loop
      vertex 1.59684 35.75 -0.100465
      vertex 1.59684 36.75 -0.100465
      vertex 1.58738 35.75 -0.200533
    endloop
  endfacet
  facet normal -0.995562 -2.52403e-16 0.0941062
    outer loop
      vertex 1.58738 35.75 -0.200533
      vertex 1.59684 36.75 -0.100465
      vertex 1.58738 36.75 -0.200533
    endloop
  endfacet
  facet normal -0.999507 -2.32755e-16 0.0314084
    outer loop
      vertex 1.6 35.75 -1.63075e-15
      vertex 1.6 36.75 -1.28624e-15
      vertex 1.59684 35.75 -0.100465
    endloop
  endfacet
  facet normal -0.999507 -2.32832e-16 0.0314084
    outer loop
      vertex 1.59684 35.75 -0.100465
      vertex 1.6 36.75 -1.28624e-15
      vertex 1.59684 36.75 -0.100465
    endloop
  endfacet
  facet normal -0.999507 -2.11115e-16 -0.0314084
    outer loop
      vertex 1.6 35.75 -1.63075e-15
      vertex 1.59684 35.75 0.100465
      vertex 1.6 36.75 -1.28624e-15
    endloop
  endfacet
  facet normal -0.999507 -2.10876e-16 -0.0314084
    outer loop
      vertex 1.6 36.75 -1.28624e-15
      vertex 1.59684 35.75 0.100465
      vertex 1.59684 36.75 0.100465
    endloop
  endfacet
  facet normal -0.995562 -1.8841e-16 -0.0941062
    outer loop
      vertex 1.59684 35.75 0.100465
      vertex 1.58738 35.75 0.200533
      vertex 1.59684 36.75 0.100465
    endloop
  endfacet
  facet normal -0.995562 -1.89844e-16 -0.0941062
    outer loop
      vertex 1.59684 36.75 0.100465
      vertex 1.58738 35.75 0.200533
      vertex 1.58738 36.75 0.200533
    endloop
  endfacet
  facet normal -0.987688 -1.67207e-16 -0.156435
    outer loop
      vertex 1.58738 35.75 0.200533
      vertex 1.57166 35.75 0.29981
      vertex 1.58738 36.75 0.200533
    endloop
  endfacet
  facet normal -0.987688 -1.6827e-16 -0.156435
    outer loop
      vertex 1.58738 36.75 0.200533
      vertex 1.57166 35.75 0.29981
      vertex 1.57166 36.75 0.29981
    endloop
  endfacet
  facet normal -0.975916 -1.44039e-16 -0.218147
    outer loop
      vertex 1.57166 35.75 0.29981
      vertex 1.54973 35.75 0.397904
      vertex 1.57166 36.75 0.29981
    endloop
  endfacet
  facet normal -0.975916 -1.42382e-16 -0.218147
    outer loop
      vertex 1.57166 36.75 0.29981
      vertex 1.54973 35.75 0.397904
      vertex 1.54973 36.75 0.397904
    endloop
  endfacet
  facet normal -0.960292 -1.20304e-16 -0.278995
    outer loop
      vertex 1.54973 35.75 0.397904
      vertex 1.52169 35.75 0.494427
      vertex 1.54973 36.75 0.397904
    endloop
  endfacet
  facet normal -0.960292 -3.32226e-16 -0.278995
    outer loop
      vertex 1.54973 36.75 0.397904
      vertex 1.52169 35.75 0.494427
      vertex 1.52169 36.75 0.494427
    endloop
  endfacet
  facet normal -0.940881 -3.05013e-16 -0.338738
    outer loop
      vertex 1.52169 35.75 0.494427
      vertex 1.48764 35.75 0.588999
      vertex 1.52169 36.75 0.494427
    endloop
  endfacet
  facet normal -0.940881 -9.92362e-17 -0.338738
    outer loop
      vertex 1.52169 36.75 0.494427
      vertex 1.48764 35.75 0.588999
      vertex 1.48764 36.75 0.588999
    endloop
  endfacet
  facet normal -0.917756 -7.15066e-17 -0.397146
    outer loop
      vertex 1.48764 35.75 0.588999
      vertex 1.44772 35.75 0.681247
      vertex 1.48764 36.75 0.588999
    endloop
  endfacet
  facet normal -0.917756 -2.58876e-17 -0.397146
    outer loop
      vertex 1.48764 36.75 0.588999
      vertex 1.44772 35.75 0.681247
      vertex 1.44772 36.75 0.681247
    endloop
  endfacet
  facet normal -0.891009 3.7665e-18 -0.453986
    outer loop
      vertex 1.44772 35.75 0.681247
      vertex 1.40209 35.75 0.770806
      vertex 1.44772 36.75 0.681247
    endloop
  endfacet
  facet normal -0.891009 -5.17755e-17 -0.453986
    outer loop
      vertex 1.44772 36.75 0.681247
      vertex 1.40209 35.75 0.770806
      vertex 1.40209 36.75 0.770806
    endloop
  endfacet
  facet normal -0.860742 -2.15783e-17 -0.509041
    outer loop
      vertex 1.40209 35.75 0.770806
      vertex 1.35093 35.75 0.857323
      vertex 1.40209 36.75 0.770806
    endloop
  endfacet
  facet normal -0.860742 -1.72585e-17 -0.509041
    outer loop
      vertex 1.40209 36.75 0.770806
      vertex 1.35093 35.75 0.857323
      vertex 1.35093 36.75 0.857323
    endloop
  endfacet
  facet normal -0.827077 3.56546e-18 -0.562089
    outer loop
      vertex 1.35093 35.75 0.857323
      vertex 1.29443 35.75 0.940456
      vertex 1.35093 36.75 0.857323
    endloop
  endfacet
  facet normal -0.827077 8.62924e-18 -0.562089
    outer loop
      vertex 1.35093 36.75 0.857323
      vertex 1.29443 35.75 0.940456
      vertex 1.29443 36.75 0.940456
    endloop
  endfacet
  facet normal -0.790155 2.86893e-17 -0.612907
    outer loop
      vertex 1.29443 35.75 0.940456
      vertex 1.23282 35.75 1.01988
      vertex 1.29443 36.75 0.940456
    endloop
  endfacet
  facet normal -0.790155 -4.31461e-17 -0.612907
    outer loop
      vertex 1.29443 36.75 0.940456
      vertex 1.23282 35.75 1.01988
      vertex 1.23282 36.75 1.01988
    endloop
  endfacet
  facet normal -0.750113 -1.97183e-17 -0.66131
    outer loop
      vertex 1.23282 35.75 1.01988
      vertex 1.16635 35.75 1.09527
      vertex 1.23282 36.75 1.01988
    endloop
  endfacet
  facet normal -0.750113 -1.72585e-17 -0.66131
    outer loop
      vertex 1.23282 36.75 1.01988
      vertex 1.16635 35.75 1.09527
      vertex 1.16635 36.75 1.09527
    endloop
  endfacet
  facet normal -0.707107 0 -0.707107
    outer loop
      vertex 1.16635 35.75 1.09527
      vertex 1.09528 35.75 1.16635
      vertex 1.16635 36.75 1.09527
    endloop
  endfacet
  facet normal -0.707107 0 -0.707107
    outer loop
      vertex 1.16635 36.75 1.09527
      vertex 1.09528 35.75 1.16635
      vertex 1.09528 36.75 1.16635
    endloop
  endfacet
  facet normal -0.66131 1.97183e-17 -0.750113
    outer loop
      vertex 1.09528 35.75 1.16635
      vertex 1.01988 35.75 1.23282
      vertex 1.09528 36.75 1.16635
    endloop
  endfacet
  facet normal -0.66131 1.72585e-17 -0.750113
    outer loop
      vertex 1.09528 36.75 1.16635
      vertex 1.01988 35.75 1.23282
      vertex 1.01988 36.75 1.23282
    endloop
  endfacet
  facet normal -0.612907 3.9357e-17 -0.790155
    outer loop
      vertex 1.01988 35.75 1.23282
      vertex 0.940456 35.75 1.29443
      vertex 1.01988 36.75 1.23282
    endloop
  endfacet
  facet normal -0.612907 2.15731e-16 -0.790155
    outer loop
      vertex 1.01988 36.75 1.23282
      vertex 0.940456 35.75 1.29443
      vertex 0.940456 36.75 1.29443
    endloop
  endfacet
  facet normal -0.562089 2.42487e-16 -0.827077
    outer loop
      vertex 0.940456 35.75 1.29443
      vertex 0.857323 35.75 1.35092
      vertex 0.940456 36.75 1.29443
    endloop
  endfacet
  facet normal -0.562089 1.81214e-16 -0.827077
    outer loop
      vertex 0.940456 36.75 1.29443
      vertex 0.857323 35.75 1.35092
      vertex 0.857323 36.75 1.35092
    endloop
  endfacet
  facet normal -0.509041 2.12701e-16 -0.860742
    outer loop
      vertex 0.857323 35.75 1.35092
      vertex 0.770806 35.75 1.40209
      vertex 0.857323 36.75 1.35092
    endloop
  endfacet
  facet normal -0.509041 2.07101e-16 -0.860742
    outer loop
      vertex 0.857323 36.75 1.35092
      vertex 0.770806 35.75 1.40209
      vertex 0.770806 36.75 1.40209
    endloop
  endfacet
  facet normal -0.453986 2.4448e-16 -0.891009
    outer loop
      vertex 0.770806 35.75 1.40209
      vertex 0.681247 35.75 1.44772
      vertex 0.770806 36.75 1.40209
    endloop
  endfacet
  facet normal -0.453986 2.93395e-16 -0.891009
    outer loop
      vertex 0.770806 36.75 1.40209
      vertex 0.681247 35.75 1.44772
      vertex 0.681247 36.75 1.44772
    endloop
  endfacet
  facet normal -0.397146 3.19381e-16 -0.917756
    outer loop
      vertex 0.681247 35.75 1.44772
      vertex 0.588999 35.75 1.48764
      vertex 0.681247 36.75 1.44772
    endloop
  endfacet
  facet normal -0.397146 3.1928e-16 -0.917756
    outer loop
      vertex 0.681247 36.75 1.44772
      vertex 0.588999 35.75 1.48764
      vertex 0.588999 36.75 1.48764
    endloop
  endfacet
  facet normal -0.338738 3.4262e-16 -0.940881
    outer loop
      vertex 0.588999 35.75 1.48764
      vertex 0.494427 35.75 1.52169
      vertex 0.588999 36.75 1.48764
    endloop
  endfacet
  facet normal -0.338738 1.33753e-16 -0.940881
    outer loop
      vertex 0.588999 36.75 1.48764
      vertex 0.494427 35.75 1.52169
      vertex 0.494427 36.75 1.52169
    endloop
  endfacet
  facet normal -0.278995 1.51278e-16 -0.960292
    outer loop
      vertex 0.494427 35.75 1.52169
      vertex 0.397904 35.75 1.54973
      vertex 0.494427 36.75 1.52169
    endloop
  endfacet
  facet normal -0.278995 1.33753e-16 -0.960292
    outer loop
      vertex 0.494427 36.75 1.52169
      vertex 0.397904 35.75 1.54973
      vertex 0.397904 36.75 1.54973
    endloop
  endfacet
  facet normal -0.218147 1.56149e-16 -0.975916
    outer loop
      vertex 0.397904 35.75 1.54973
      vertex 0.29981 35.75 1.57166
      vertex 0.397904 36.75 1.54973
    endloop
  endfacet
  facet normal -0.218147 1.55325e-16 -0.975916
    outer loop
      vertex 0.397904 36.75 1.54973
      vertex 0.29981 35.75 1.57166
      vertex 0.29981 36.75 1.57166
    endloop
  endfacet
  facet normal -0.156435 1.75891e-16 -0.987688
    outer loop
      vertex 0.29981 35.75 1.57166
      vertex 0.200533 35.75 1.58738
      vertex 0.29981 36.75 1.57166
    endloop
  endfacet
  facet normal -0.156435 1.81214e-16 -0.987688
    outer loop
      vertex 0.29981 36.75 1.57166
      vertex 0.200533 35.75 1.58738
      vertex 0.200533 36.75 1.58738
    endloop
  endfacet
  facet normal -0.0941062 1.97551e-16 -0.995562
    outer loop
      vertex 0.200533 35.75 1.58738
      vertex 0.100465 35.75 1.59684
      vertex 0.200533 36.75 1.58738
    endloop
  endfacet
  facet normal -0.0941062 1.97394e-16 -0.995562
    outer loop
      vertex 0.200533 36.75 1.58738
      vertex 0.100465 35.75 1.59684
      vertex 0.100465 36.75 1.59684
    endloop
  endfacet
  facet normal -0.0314084 2.14089e-16 -0.999507
    outer loop
      vertex 0.100465 35.75 1.59684
      vertex 1.50627e-15 35.75 1.6
      vertex 0.100465 36.75 1.59684
    endloop
  endfacet
  facet normal -0.0314084 4.35775e-16 -0.999507
    outer loop
      vertex 0.100465 36.75 1.59684
      vertex 1.50627e-15 35.75 1.6
      vertex 1.26134e-15 36.75 1.6
    endloop
  endfacet
  facet normal 0.0314084 4.51563e-16 -0.999507
    outer loop
      vertex 1.50627e-15 35.75 1.6
      vertex -0.100465 35.75 1.59684
      vertex 1.26134e-15 36.75 1.6
    endloop
  endfacet
  facet normal 0.0314084 4.51416e-16 -0.999507
    outer loop
      vertex 1.26134e-15 36.75 1.6
      vertex -0.100465 35.75 1.59684
      vertex -0.100465 36.75 1.59684
    endloop
  endfacet
  facet normal 0.0941062 4.65626e-16 -0.995562
    outer loop
      vertex -0.100465 35.75 1.59684
      vertex -0.200533 35.75 1.58738
      vertex -0.100465 36.75 1.59684
    endloop
  endfacet
  facet normal 0.0941062 4.6598e-16 -0.995562
    outer loop
      vertex -0.100465 36.75 1.59684
      vertex -0.200533 35.75 1.58738
      vertex -0.200533 36.75 1.58738
    endloop
  endfacet
  facet normal 0.156435 4.77699e-16 -0.987688
    outer loop
      vertex -0.200533 35.75 1.58738
      vertex -0.29981 35.75 1.57166
      vertex -0.200533 36.75 1.58738
    endloop
  endfacet
  facet normal 0.156435 4.81079e-16 -0.987688
    outer loop
      vertex -0.200533 36.75 1.58738
      vertex -0.29981 35.75 1.57166
      vertex -0.29981 36.75 1.57166
    endloop
  endfacet
  facet normal 0.218147 4.93942e-16 -0.975916
    outer loop
      vertex -0.29981 35.75 1.57166
      vertex -0.397904 35.75 1.54973
      vertex -0.29981 36.75 1.57166
    endloop
  endfacet
  facet normal 0.218147 4.96179e-16 -0.975916
    outer loop
      vertex -0.29981 36.75 1.57166
      vertex -0.397904 35.75 1.54973
      vertex -0.397904 36.75 1.54973
    endloop
  endfacet
  facet normal 0.278995 5.03892e-16 -0.960292
    outer loop
      vertex -0.397904 35.75 1.54973
      vertex -0.494427 35.75 1.52169
      vertex -0.397904 36.75 1.54973
    endloop
  endfacet
  facet normal 0.278995 2.76136e-16 -0.960292
    outer loop
      vertex -0.397904 36.75 1.54973
      vertex -0.494427 35.75 1.52169
      vertex -0.494427 36.75 1.52169
    endloop
  endfacet
  facet normal 0.338738 2.84132e-16 -0.940881
    outer loop
      vertex -0.494427 35.75 1.52169
      vertex -0.588999 35.75 1.48764
      vertex -0.494427 36.75 1.52169
    endloop
  endfacet
  facet normal 0.338738 2.84765e-16 -0.940881
    outer loop
      vertex -0.494427 36.75 1.52169
      vertex -0.588999 35.75 1.48764
      vertex -0.588999 36.75 1.48764
    endloop
  endfacet
  facet normal 0.397146 2.91967e-16 -0.917756
    outer loop
      vertex -0.588999 35.75 1.48764
      vertex -0.681247 35.75 1.44772
      vertex -0.588999 36.75 1.48764
    endloop
  endfacet
  facet normal 0.397146 2.93393e-16 -0.917756
    outer loop
      vertex -0.588999 36.75 1.48764
      vertex -0.681247 35.75 1.44772
      vertex -0.681247 36.75 1.44772
    endloop
  endfacet
  facet normal 0.453986 2.98649e-16 -0.891009
    outer loop
      vertex -0.681247 35.75 1.44772
      vertex -0.770806 35.75 1.40209
      vertex -0.681247 36.75 1.44772
    endloop
  endfacet
  facet normal 0.453986 3.53799e-16 -0.891009
    outer loop
      vertex -0.681247 36.75 1.44772
      vertex -0.770806 35.75 1.40209
      vertex -0.770806 36.75 1.40209
    endloop
  endfacet
  facet normal 0.509041 3.60668e-16 -0.860742
    outer loop
      vertex -0.770806 35.75 1.40209
      vertex -0.857323 35.75 1.35092
      vertex -0.770806 36.75 1.40209
    endloop
  endfacet
  facet normal 0.509041 5.5227e-16 -0.860742
    outer loop
      vertex -0.770806 36.75 1.40209
      vertex -0.857323 35.75 1.35092
      vertex -0.857323 36.75 1.35092
    endloop
  endfacet
  facet normal 0.562089 5.54509e-16 -0.827077
    outer loop
      vertex -0.857323 35.75 1.35092
      vertex -0.940456 35.75 1.29443
      vertex -0.857323 36.75 1.35092
    endloop
  endfacet
  facet normal 0.562089 4.91867e-16 -0.827077
    outer loop
      vertex -0.857323 36.75 1.35092
      vertex -0.940456 35.75 1.29443
      vertex -0.940456 36.75 1.29443
    endloop
  endfacet
  facet normal 0.612907 4.86992e-16 -0.790155
    outer loop
      vertex -0.940456 35.75 1.29443
      vertex -1.01988 35.75 1.23282
      vertex -0.940456 36.75 1.29443
    endloop
  endfacet
  facet normal 0.612907 4.83237e-16 -0.790155
    outer loop
      vertex -0.940456 36.75 1.29443
      vertex -1.01988 35.75 1.23282
      vertex -1.01988 36.75 1.23282
    endloop
  endfacet
  facet normal 0.66131 4.79957e-16 -0.750113
    outer loop
      vertex -1.01988 35.75 1.23282
      vertex -1.09527 35.75 1.16635
      vertex -1.01988 36.75 1.23282
    endloop
  endfacet
  facet normal 0.66131 4.83238e-16 -0.750113
    outer loop
      vertex -1.01988 36.75 1.23282
      vertex -1.09527 35.75 1.16635
      vertex -1.09527 36.75 1.16635
    endloop
  endfacet
  facet normal 0.707107 4.71028e-16 -0.707107
    outer loop
      vertex -1.09527 36.75 1.16635
      vertex -1.09527 35.75 1.16635
      vertex -1.16635 35.75 1.09527
    endloop
  endfacet
  facet normal 0.707107 4.71028e-16 -0.707107
    outer loop
      vertex -1.16635 36.75 1.09527
      vertex -1.09527 36.75 1.16635
      vertex -1.16635 35.75 1.09527
    endloop
  endfacet
  facet normal 0.750113 4.60239e-16 -0.66131
    outer loop
      vertex -1.16635 36.75 1.09527
      vertex -1.16635 35.75 1.09527
      vertex -1.23282 35.75 1.01988
    endloop
  endfacet
  facet normal 0.750113 4.60239e-16 -0.66131
    outer loop
      vertex -1.23282 36.75 1.01988
      vertex -1.16635 36.75 1.09527
      vertex -1.23282 35.75 1.01988
    endloop
  endfacet
  facet normal 0.790155 4.47635e-16 -0.612907
    outer loop
      vertex -1.23282 36.75 1.01988
      vertex -1.23282 35.75 1.01988
      vertex -1.29443 35.75 0.940456
    endloop
  endfacet
  facet normal 0.790155 4.47635e-16 -0.612907
    outer loop
      vertex -1.29443 36.75 0.940456
      vertex -1.23282 36.75 1.01988
      vertex -1.29443 35.75 0.940456
    endloop
  endfacet
  facet normal 0.827077 4.33266e-16 -0.562089
    outer loop
      vertex -1.29443 36.75 0.940456
      vertex -1.29443 35.75 0.940456
      vertex -1.35092 35.75 0.857323
    endloop
  endfacet
  facet normal 0.827077 3.70861e-16 -0.562089
    outer loop
      vertex -1.35092 36.75 0.857323
      vertex -1.29443 36.75 0.940456
      vertex -1.35092 35.75 0.857323
    endloop
  endfacet
  facet normal 0.860742 3.60668e-16 -0.509041
    outer loop
      vertex -1.35092 36.75 0.857323
      vertex -1.35092 35.75 0.857323
      vertex -1.40209 35.75 0.770806
    endloop
  endfacet
  facet normal 0.860742 3.60668e-16 -0.509041
    outer loop
      vertex -1.40209 36.75 0.770806
      vertex -1.35092 36.75 0.857323
      vertex -1.40209 35.75 0.770806
    endloop
  endfacet
  facet normal 0.891009 3.49051e-16 -0.453986
    outer loop
      vertex -1.40209 36.75 0.770806
      vertex -1.40209 35.75 0.770806
      vertex -1.44772 35.75 0.681247
    endloop
  endfacet
  facet normal 0.891009 3.49051e-16 -0.453986
    outer loop
      vertex -1.44772 36.75 0.681247
      vertex -1.40209 36.75 0.770806
      vertex -1.44772 35.75 0.681247
    endloop
  endfacet
  facet normal 0.917756 3.36059e-16 -0.397146
    outer loop
      vertex -1.44772 36.75 0.681247
      vertex -1.44772 35.75 0.681247
      vertex -1.48764 35.75 0.588999
    endloop
  endfacet
  facet normal 0.917756 3.36059e-16 -0.397146
    outer loop
      vertex -1.48764 36.75 0.588999
      vertex -1.44772 36.75 0.681247
      vertex -1.48764 35.75 0.588999
    endloop
  endfacet
  facet normal 0.940881 3.2174e-16 -0.338738
    outer loop
      vertex -1.48764 36.75 0.588999
      vertex -1.48764 35.75 0.588999
      vertex -1.52169 35.75 0.494427
    endloop
  endfacet
  facet normal 0.940881 5.49461e-16 -0.338738
    outer loop
      vertex -1.52169 36.75 0.494427
      vertex -1.48764 36.75 0.588999
      vertex -1.52169 35.75 0.494427
    endloop
  endfacet
  facet normal 0.960292 5.34867e-16 -0.278995
    outer loop
      vertex -1.52169 36.75 0.494427
      vertex -1.52169 35.75 0.494427
      vertex -1.54973 35.75 0.397904
    endloop
  endfacet
  facet normal 0.960292 3.06152e-16 -0.278995
    outer loop
      vertex -1.54973 36.75 0.397904
      vertex -1.52169 36.75 0.494427
      vertex -1.54973 35.75 0.397904
    endloop
  endfacet
  facet normal 0.975916 2.89354e-16 -0.218147
    outer loop
      vertex -1.54973 36.75 0.397904
      vertex -1.54973 35.75 0.397904
      vertex -1.57166 35.75 0.29981
    endloop
  endfacet
  facet normal 0.975916 2.89354e-16 -0.218147
    outer loop
      vertex -1.57166 36.75 0.29981
      vertex -1.54973 36.75 0.397904
      vertex -1.57166 35.75 0.29981
    endloop
  endfacet
  facet normal 0.987688 2.71414e-16 -0.156435
    outer loop
      vertex -1.57166 36.75 0.29981
      vertex -1.57166 35.75 0.29981
      vertex -1.58738 35.75 0.200533
    endloop
  endfacet
  facet normal 0.987688 2.71414e-16 -0.156435
    outer loop
      vertex -1.58738 36.75 0.200533
      vertex -1.57166 36.75 0.29981
      vertex -1.58738 35.75 0.200533
    endloop
  endfacet
  facet normal 0.995562 2.52403e-16 -0.0941062
    outer loop
      vertex -1.58738 36.75 0.200533
      vertex -1.58738 35.75 0.200533
      vertex -1.59684 35.75 0.100465
    endloop
  endfacet
  facet normal 0.995562 2.52403e-16 -0.0941062
    outer loop
      vertex -1.59684 36.75 0.100465
      vertex -1.58738 36.75 0.200533
      vertex -1.59684 35.75 0.100465
    endloop
  endfacet
  facet normal 1 2.68129e-16 3.04518e-16
    outer loop
      vertex -8.5 36.75 9.5
      vertex -8.5 36.75 -8
      vertex -8.5 63.25 -8
    endloop
  endfacet
  facet normal 1 2.01097e-16 2.03012e-16
    outer loop
      vertex -8.5 63.25 9.5
      vertex -8.5 36.75 9.5
      vertex -8.5 63.25 -8
    endloop
  endfacet
  facet normal 5.59019e-16 1 4.06024e-16
    outer loop
      vertex -1.6 36.75 -2.06999e-15
      vertex -8.5 36.75 -8
      vertex -8.5 36.75 9.5
    endloop
  endfacet
  facet normal 9.93573e-16 1 3.12219e-17
    outer loop
      vertex -1.59684 36.75 -0.100465
      vertex -8.5 36.75 -8
      vertex -1.6 36.75 -2.06999e-15
    endloop
  endfacet
  facet normal -0 1 0
    outer loop
      vertex -1.59684 36.75 0.100465
      vertex -1.6 36.75 -2.06999e-15
      vertex -8.5 36.75 9.5
    endloop
  endfacet
  facet normal 9.2883e-16 1 8.77984e-17
    outer loop
      vertex -1.58738 36.75 -0.200533
      vertex -8.5 36.75 -8
      vertex -1.59684 36.75 -0.100465
    endloop
  endfacet
  facet normal 8.72052e-16 1 1.3812e-16
    outer loop
      vertex -1.57166 36.75 -0.29981
      vertex -8.5 36.75 -8
      vertex -1.58738 36.75 -0.200533
    endloop
  endfacet
  facet normal 8.21478e-16 1 1.83625e-16
    outer loop
      vertex -1.54973 36.75 -0.397904
      vertex -8.5 36.75 -8
      vertex -1.57166 36.75 -0.29981
    endloop
  endfacet
  facet normal 7.75793e-16 1 2.25393e-16
    outer loop
      vertex -1.52169 36.75 -0.494427
      vertex -8.5 36.75 -8
      vertex -1.54973 36.75 -0.397904
    endloop
  endfacet
  facet normal -5.75185e-14 1 5.44245e-14
    outer loop
      vertex -1.48764 36.75 -0.588999
      vertex -8.5 36.75 -8
      vertex -1.52169 36.75 -0.494427
    endloop
  endfacet
  facet normal -0 1 0
    outer loop
      vertex -1.44772 36.75 -0.681247
      vertex -8.5 36.75 -8
      vertex -1.48764 36.75 -0.588999
    endloop
  endfacet
  facet normal -0 1 0
    outer loop
      vertex -1.35092 36.75 -0.857323
      vertex -8.5 36.75 -8
      vertex -1.40209 36.75 -0.770806
    endloop
  endfacet
  facet normal -0 1 0
    outer loop
      vertex -1.29443 36.75 -0.940456
      vertex -8.5 36.75 -8
      vertex -1.35092 36.75 -0.857323
    endloop
  endfacet
  facet normal -0 1 0
    outer loop
      vertex -1.23282 36.75 -1.01988
      vertex -8.5 36.75 -8
      vertex -1.29443 36.75 -0.940456
    endloop
  endfacet
  facet normal -0 1 0
    outer loop
      vertex -1.16635 36.75 -1.09528
      vertex -8.5 36.75 -8
      vertex -1.23282 36.75 -1.01988
    endloop
  endfacet
  facet normal -0 1 0
    outer loop
      vertex -1.09527 36.75 -1.16635
      vertex -8.5 36.75 -8
      vertex -1.16635 36.75 -1.09528
    endloop
  endfacet
  facet normal -0 1 0
    outer loop
      vertex -1.01988 36.75 -1.23282
      vertex -8.5 36.75 -8
      vertex -1.09527 36.75 -1.16635
    endloop
  endfacet
  facet normal -0 1 0
    outer loop
      vertex -0.940456 36.75 -1.29443
      vertex -8.5 36.75 -8
      vertex -1.01988 36.75 -1.23282
    endloop
  endfacet
  facet normal -0 1 0
    outer loop
      vertex 8.5 36.75 -8
      vertex -8.5 36.75 -8
      vertex -0.940456 36.75 -1.29443
    endloop
  endfacet
  facet normal 0 1 0
    outer loop
      vertex 8.5 36.75 -8
      vertex -0.940456 36.75 -1.29443
      vertex -0.857323 36.75 -1.35093
    endloop
  endfacet
  facet normal -0 1 -0
    outer loop
      vertex -0.681247 36.75 -1.44772
      vertex 8.5 36.75 -8
      vertex -0.770806 36.75 -1.40209
    endloop
  endfacet
  facet normal -0 1 -0
    outer loop
      vertex -0.588999 36.75 -1.48764
      vertex 8.5 36.75 -8
      vertex -0.681247 36.75 -1.44772
    endloop
  endfacet
  facet normal -0 1 -0
    outer loop
      vertex -0.494427 36.75 -1.52169
      vertex 8.5 36.75 -8
      vertex -0.588999 36.75 -1.48764
    endloop
  endfacet
  facet normal -0 1 -0
    outer loop
      vertex -0.397904 36.75 -1.54973
      vertex 8.5 36.75 -8
      vertex -0.494427 36.75 -1.52169
    endloop
  endfacet
  facet normal -0 1 -0
    outer loop
      vertex -0.29981 36.75 -1.57166
      vertex 8.5 36.75 -8
      vertex -0.397904 36.75 -1.54973
    endloop
  endfacet
  facet normal 0 1 -0
    outer loop
      vertex 1.40209 36.75 -0.770806
      vertex 8.5 36.75 9.5
      vertex 1.35093 36.75 -0.857323
    endloop
  endfacet
  facet normal 0 1 0
    outer loop
      vertex 8.5 36.75 -8
      vertex -0.29981 36.75 -1.57166
      vertex -0.200533 36.75 -1.58738
    endloop
  endfacet
  facet normal 0 1 0
    outer loop
      vertex 8.5 36.75 -8
      vertex -0.200533 36.75 -1.58738
      vertex -0.100465 36.75 -1.59684
    endloop
  endfacet
  facet normal 0 1 0
    outer loop
      vertex 8.5 36.75 -8
      vertex -0.100465 36.75 -1.59684
      vertex 2.04509e-15 36.75 -1.6
    endloop
  endfacet
  facet normal 0 1 0
    outer loop
      vertex 8.5 36.75 -8
      vertex 2.04509e-15 36.75 -1.6
      vertex 0.100465 36.75 -1.59684
    endloop
  endfacet
  facet normal 0 1 0
    outer loop
      vertex 8.5 36.75 -8
      vertex 0.100465 36.75 -1.59684
      vertex 0.200533 36.75 -1.58738
    endloop
  endfacet
  facet normal 0 1 0
    outer loop
      vertex 8.5 36.75 -8
      vertex 0.200533 36.75 -1.58738
      vertex 0.29981 36.75 -1.57166
    endloop
  endfacet
  facet normal 0 1 0
    outer loop
      vertex 8.5 36.75 -8
      vertex 0.29981 36.75 -1.57166
      vertex 0.397904 36.75 -1.54973
    endloop
  endfacet
  facet normal 0 1 0
    outer loop
      vertex 8.5 36.75 -8
      vertex 0.397904 36.75 -1.54973
      vertex 0.494427 36.75 -1.52169
    endloop
  endfacet
  facet normal 0 1 0
    outer loop
      vertex 8.5 36.75 -8
      vertex 0.494427 36.75 -1.52169
      vertex 0.588999 36.75 -1.48764
    endloop
  endfacet
  facet normal 0 1 0
    outer loop
      vertex 8.5 36.75 -8
      vertex 0.588999 36.75 -1.48764
      vertex 0.681247 36.75 -1.44772
    endloop
  endfacet
  facet normal 0 1 0
    outer loop
      vertex 8.5 36.75 -8
      vertex 0.681247 36.75 -1.44772
      vertex 0.770806 36.75 -1.40209
    endloop
  endfacet
  facet normal 0 1 0
    outer loop
      vertex 8.5 36.75 -8
      vertex 0.770806 36.75 -1.40209
      vertex 0.857323 36.75 -1.35093
    endloop
  endfacet
  facet normal 0 1 0
    outer loop
      vertex 8.5 36.75 -8
      vertex 0.857323 36.75 -1.35093
      vertex 0.940456 36.75 -1.29443
    endloop
  endfacet
  facet normal 0 1 0
    outer loop
      vertex 8.5 36.75 -8
      vertex 0.940456 36.75 -1.29443
      vertex 1.01988 36.75 -1.23282
    endloop
  endfacet
  facet normal 0 1 0
    outer loop
      vertex 8.5 36.75 -8
      vertex 1.01988 36.75 -1.23282
      vertex 1.09528 36.75 -1.16635
    endloop
  endfacet
  facet normal 0 1 0
    outer loop
      vertex 8.5 36.75 -8
      vertex 1.09528 36.75 -1.16635
      vertex 1.16635 36.75 -1.09528
    endloop
  endfacet
  facet normal 0 1 0
    outer loop
      vertex 8.5 36.75 -8
      vertex 1.16635 36.75 -1.09528
      vertex 1.23282 36.75 -1.01988
    endloop
  endfacet
  facet normal 0 1 0
    outer loop
      vertex 8.5 36.75 -8
      vertex 1.23282 36.75 -1.01988
      vertex 1.29443 36.75 -0.940456
    endloop
  endfacet
  facet normal 0 1 0
    outer loop
      vertex 8.5 36.75 -8
      vertex 1.29443 36.75 -0.940456
      vertex 8.5 36.75 9.5
    endloop
  endfacet
  facet normal 0 1 0
    outer loop
      vertex 1.29443 36.75 -0.940456
      vertex 1.35093 36.75 -0.857323
      vertex 8.5 36.75 9.5
    endloop
  endfacet
  facet normal 0 1 -0
    outer loop
      vertex 1.44772 36.75 -0.681247
      vertex 8.5 36.75 9.5
      vertex 1.40209 36.75 -0.770806
    endloop
  endfacet
  facet normal 0 1 -0
    outer loop
      vertex 1.48764 36.75 -0.588999
      vertex 8.5 36.75 9.5
      vertex 1.44772 36.75 -0.681247
    endloop
  endfacet
  facet normal 0 1 -0
    outer loop
      vertex 1.52169 36.75 -0.494427
      vertex 8.5 36.75 9.5
      vertex 1.48764 36.75 -0.588999
    endloop
  endfacet
  facet normal 0 1 -0
    outer loop
      vertex 1.54973 36.75 -0.397904
      vertex 8.5 36.75 9.5
      vertex 1.52169 36.75 -0.494427
    endloop
  endfacet
  facet normal 0 1 -0
    outer loop
      vertex 1.57166 36.75 -0.29981
      vertex 8.5 36.75 9.5
      vertex 1.54973 36.75 -0.397904
    endloop
  endfacet
  facet normal 0 1 -0
    outer loop
      vertex 1.58738 36.75 -0.200533
      vertex 8.5 36.75 9.5
      vertex 1.57166 36.75 -0.29981
    endloop
  endfacet
  facet normal 0 1 -0
    outer loop
      vertex 1.59684 36.75 -0.100465
      vertex 8.5 36.75 9.5
      vertex 1.58738 36.75 -0.200533
    endloop
  endfacet
  facet normal 0 1 -0
    outer loop
      vertex 1.6 36.75 -1.28624e-15
      vertex 8.5 36.75 9.5
      vertex 1.59684 36.75 -0.100465
    endloop
  endfacet
  facet normal 0 1 0
    outer loop
      vertex 1.59684 36.75 0.100465
      vertex 8.5 36.75 9.5
      vertex 1.6 36.75 -1.28624e-15
    endloop
  endfacet
  facet normal 0 1 0
    outer loop
      vertex 1.58738 36.75 0.200533
      vertex 8.5 36.75 9.5
      vertex 1.59684 36.75 0.100465
    endloop
  endfacet
  facet normal 0 1 0
    outer loop
      vertex 1.57166 36.75 0.29981
      vertex 8.5 36.75 9.5
      vertex 1.58738 36.75 0.200533
    endloop
  endfacet
  facet normal 0 1 0
    outer loop
      vertex 1.54973 36.75 0.397904
      vertex 8.5 36.75 9.5
      vertex 1.57166 36.75 0.29981
    endloop
  endfacet
  facet normal 0 1 0
    outer loop
      vertex 1.52169 36.75 0.494427
      vertex 8.5 36.75 9.5
      vertex 1.54973 36.75 0.397904
    endloop
  endfacet
  facet normal 0 1 0
    outer loop
      vertex 1.48764 36.75 0.588999
      vertex 8.5 36.75 9.5
      vertex 1.52169 36.75 0.494427
    endloop
  endfacet
  facet normal 0 1 0
    outer loop
      vertex 1.44772 36.75 0.681247
      vertex 8.5 36.75 9.5
      vertex 1.48764 36.75 0.588999
    endloop
  endfacet
  facet normal 0 1 0
    outer loop
      vertex 0.681247 36.75 1.44772
      vertex 8.5 36.75 9.5
      vertex 0.770806 36.75 1.40209
    endloop
  endfacet
  facet normal 0 1 0
    outer loop
      vertex 1.44772 36.75 0.681247
      vertex 1.40209 36.75 0.770806
      vertex 8.5 36.75 9.5
    endloop
  endfacet
  facet normal 0 1 0
    outer loop
      vertex 1.40209 36.75 0.770806
      vertex 1.35093 36.75 0.857323
      vertex 8.5 36.75 9.5
    endloop
  endfacet
  facet normal 0 1 0
    outer loop
      vertex 1.35093 36.75 0.857323
      vertex 1.29443 36.75 0.940456
      vertex 8.5 36.75 9.5
    endloop
  endfacet
  facet normal 0 1 0
    outer loop
      vertex 1.29443 36.75 0.940456
      vertex 1.23282 36.75 1.01988
      vertex 8.5 36.75 9.5
    endloop
  endfacet
  facet normal 0 1 0
    outer loop
      vertex 1.23282 36.75 1.01988
      vertex 1.16635 36.75 1.09527
      vertex 8.5 36.75 9.5
    endloop
  endfacet
  facet normal 0 1 0
    outer loop
      vertex 1.16635 36.75 1.09527
      vertex 1.09528 36.75 1.16635
      vertex 8.5 36.75 9.5
    endloop
  endfacet
  facet normal 0 1 0
    outer loop
      vertex 1.09528 36.75 1.16635
      vertex 1.01988 36.75 1.23282
      vertex 8.5 36.75 9.5
    endloop
  endfacet
  facet normal 0 1 0
    outer loop
      vertex 1.01988 36.75 1.23282
      vertex 0.940456 36.75 1.29443
      vertex 8.5 36.75 9.5
    endloop
  endfacet
  facet normal 0 1 0
    outer loop
      vertex 0.940456 36.75 1.29443
      vertex 0.857323 36.75 1.35092
      vertex 8.5 36.75 9.5
    endloop
  endfacet
  facet normal 0 1 0
    outer loop
      vertex 0.857323 36.75 1.35092
      vertex 0.770806 36.75 1.40209
      vertex 8.5 36.75 9.5
    endloop
  endfacet
  facet normal -0 1 -0
    outer loop
      vertex -0.770806 36.75 -1.40209
      vertex 8.5 36.75 -8
      vertex -0.857323 36.75 -1.35093
    endloop
  endfacet
  facet normal 0 1 0
    outer loop
      vertex 0.588999 36.75 1.48764
      vertex 8.5 36.75 9.5
      vertex 0.681247 36.75 1.44772
    endloop
  endfacet
  facet normal -5.54292e-14 1 5.4728e-14
    outer loop
      vertex 0.494427 36.75 1.52169
      vertex 8.5 36.75 9.5
      vertex 0.588999 36.75 1.48764
    endloop
  endfacet
  facet normal -2.00341e-16 1 -6.89567e-16
    outer loop
      vertex 0.397904 36.75 1.54973
      vertex 8.5 36.75 9.5
      vertex 0.494427 36.75 1.52169
    endloop
  endfacet
  facet normal -1.62711e-16 1 -7.27916e-16
    outer loop
      vertex 0.29981 36.75 1.57166
      vertex 8.5 36.75 9.5
      vertex 0.397904 36.75 1.54973
    endloop
  endfacet
  facet normal -1.21966e-16 1 -7.70058e-16
    outer loop
      vertex 0.200533 36.75 1.58738
      vertex 8.5 36.75 9.5
      vertex 0.29981 36.75 1.57166
    endloop
  endfacet
  facet normal -7.72261e-17 1 -8.16985e-16
    outer loop
      vertex 0.100465 36.75 1.59684
      vertex 8.5 36.75 9.5
      vertex 0.200533 36.75 1.58738
    endloop
  endfacet
  facet normal -2.7339e-17 1 -8.70006e-16
    outer loop
      vertex 1.26134e-15 36.75 1.6
      vertex 8.5 36.75 9.5
      vertex 0.100465 36.75 1.59684
    endloop
  endfacet
  facet normal -4.17966e-16 1 -4.49711e-16
    outer loop
      vertex 8.5 36.75 9.5
      vertex 1.26134e-15 36.75 1.6
      vertex -8.5 36.75 9.5
    endloop
  endfacet
  facet normal -0 1 0
    outer loop
      vertex 1.26134e-15 36.75 1.6
      vertex -0.100465 36.75 1.59684
      vertex -8.5 36.75 9.5
    endloop
  endfacet
  facet normal -0 1 0
    outer loop
      vertex -0.100465 36.75 1.59684
      vertex -0.200533 36.75 1.58738
      vertex -8.5 36.75 9.5
    endloop
  endfacet
  facet normal -0 1 0
    outer loop
      vertex -0.200533 36.75 1.58738
      vertex -0.29981 36.75 1.57166
      vertex -8.5 36.75 9.5
    endloop
  endfacet
  facet normal -0 1 0
    outer loop
      vertex -0.29981 36.75 1.57166
      vertex -0.397904 36.75 1.54973
      vertex -8.5 36.75 9.5
    endloop
  endfacet
  facet normal -0 1 0
    outer loop
      vertex -0.397904 36.75 1.54973
      vertex -0.494427 36.75 1.52169
      vertex -8.5 36.75 9.5
    endloop
  endfacet
  facet normal -0 1 0
    outer loop
      vertex -0.494427 36.75 1.52169
      vertex -0.588999 36.75 1.48764
      vertex -8.5 36.75 9.5
    endloop
  endfacet
  facet normal -0 1 0
    outer loop
      vertex -0.588999 36.75 1.48764
      vertex -0.681247 36.75 1.44772
      vertex -8.5 36.75 9.5
    endloop
  endfacet
  facet normal -0 1 0
    outer loop
      vertex -0.681247 36.75 1.44772
      vertex -0.770806 36.75 1.40209
      vertex -8.5 36.75 9.5
    endloop
  endfacet
  facet normal -0 1 0
    outer loop
      vertex -0.770806 36.75 1.40209
      vertex -0.857323 36.75 1.35092
      vertex -8.5 36.75 9.5
    endloop
  endfacet
  facet normal -0 1 0
    outer loop
      vertex -0.857323 36.75 1.35092
      vertex -0.940456 36.75 1.29443
      vertex -8.5 36.75 9.5
    endloop
  endfacet
  facet normal -0 1 0
    outer loop
      vertex -0.940456 36.75 1.29443
      vertex -1.01988 36.75 1.23282
      vertex -8.5 36.75 9.5
    endloop
  endfacet
  facet normal -0 1 0
    outer loop
      vertex -1.01988 36.75 1.23282
      vertex -1.09527 36.75 1.16635
      vertex -8.5 36.75 9.5
    endloop
  endfacet
  facet normal -0 1 0
    outer loop
      vertex -1.09527 36.75 1.16635
      vertex -1.16635 36.75 1.09527
      vertex -8.5 36.75 9.5
    endloop
  endfacet
  facet normal -0 1 0
    outer loop
      vertex -1.16635 36.75 1.09527
      vertex -1.23282 36.75 1.01988
      vertex -8.5 36.75 9.5
    endloop
  endfacet
  facet normal -0 1 0
    outer loop
      vertex -1.23282 36.75 1.01988
      vertex -1.29443 36.75 0.940456
      vertex -8.5 36.75 9.5
    endloop
  endfacet
  facet normal -0 1 0
    outer loop
      vertex -1.29443 36.75 0.940456
      vertex -1.35092 36.75 0.857323
      vertex -8.5 36.75 9.5
    endloop
  endfacet
  facet normal -0 1 0
    outer loop
      vertex -1.35092 36.75 0.857323
      vertex -1.40209 36.75 0.770806
      vertex -8.5 36.75 9.5
    endloop
  endfacet
  facet normal -0 1 0
    outer loop
      vertex -1.40209 36.75 0.770806
      vertex -1.44772 36.75 0.681247
      vertex -8.5 36.75 9.5
    endloop
  endfacet
  facet normal -0 1 0
    outer loop
      vertex -1.44772 36.75 0.681247
      vertex -1.48764 36.75 0.588999
      vertex -8.5 36.75 9.5
    endloop
  endfacet
  facet normal -0 1 0
    outer loop
      vertex -1.48764 36.75 0.588999
      vertex -1.52169 36.75 0.494427
      vertex -8.5 36.75 9.5
    endloop
  endfacet
  facet normal -0 1 0
    outer loop
      vertex -1.52169 36.75 0.494427
      vertex -1.54973 36.75 0.397904
      vertex -8.5 36.75 9.5
    endloop
  endfacet
  facet normal -0 1 0
    outer loop
      vertex -1.54973 36.75 0.397904
      vertex -1.57166 36.75 0.29981
      vertex -8.5 36.75 9.5
    endloop
  endfacet
  facet normal -0 1 0
    outer loop
      vertex -1.57166 36.75 0.29981
      vertex -1.58738 36.75 0.200533
      vertex -8.5 36.75 9.5
    endloop
  endfacet
  facet normal -0 1 0
    outer loop
      vertex -1.58738 36.75 0.200533
      vertex -1.59684 36.75 0.100465
      vertex -8.5 36.75 9.5
    endloop
  endfacet
  facet normal -0 1 0
    outer loop
      vertex -1.40209 36.75 -0.770806
      vertex -8.5 36.75 -8
      vertex -1.44772 36.75 -0.681247
    endloop
  endfacet
  facet normal -1 -2.68129e-16 -3.04518e-16
    outer loop
      vertex 8.5 36.75 -8
      vertex 8.5 36.75 9.5
      vertex 8.5 63.25 -8
    endloop
  endfacet
  facet normal -1 -2.01097e-16 -2.03012e-16
    outer loop
      vertex 8.5 63.25 -8
      vertex 8.5 36.75 9.5
      vertex 8.5 63.25 9.5
    endloop
  endfacet
  facet normal 0 -1 0
    outer loop
      vertex -8.5 63.25 -8
      vertex 8.5 63.25 -8
      vertex 8.5 63.25 9.5
    endloop
  endfacet
  facet normal 4.17966e-16 -1 -4.06024e-16
    outer loop
      vertex -8.5 63.25 9.5
      vertex -8.5 63.25 -8
      vertex 8.5 63.25 9.5
    endloop
  endfacet
  facet normal -2.08983e-16 -2.01097e-16 1
    outer loop
      vertex -8.5 36.75 -8
      vertex 8.5 36.75 -8
      vertex 8.5 63.25 -8
    endloop
  endfacet
  facet normal -2.08983e-16 -2.01097e-16 1
    outer loop
      vertex -8.5 63.25 -8
      vertex -8.5 36.75 -8
      vertex 8.5 63.25 -8
    endloop
  endfacet
endsolid OpenSCAD_Model
